<svg preserveAspectRatio="none" overflow="visible" style="display: block;" width="282.28" height="128.474" viewBox="0 0 282.28 128.474" fill="none" xmlns="http://www.w3.org/2000/svg">
<g id="Client">
<g id="Vector" filter="url(#filter0_d_4474_89957)">
<mask id="path-1-outside-1_4474_89957" maskUnits="userSpaceOnUse" x="13.5233" y="0.856922" width="255" height="126" fill="black">
<rect fill="white" x="13.5233" y="0.856922" width="255" height="126"/>
<path d="M35.9576 40.9456H44.8614L52.5852 55.535H63.8346L54.3492 39.1877C55.6531 38.5874 56.826 37.8396 57.8606 36.9321C60.912 34.2571 62.4377 30.5913 62.4377 25.937C62.4377 21.1898 60.912 17.4906 57.8606 14.8371C54.8094 12.1837 50.5827 10.8569 45.1808 10.8569H26.1766V55.535H35.9576V40.9456ZM45.4597 19.5153C47.6959 19.5153 49.4312 20.0845 50.6662 21.2255C51.8986 22.3664 52.5184 23.9838 52.5184 26.0775C52.5184 28.0783 51.9009 29.6623 50.6662 30.8247C49.4312 31.9895 47.6959 32.5707 45.4597 32.5707H35.9576V19.5153H45.4597ZM100.31 43.8086H90.8081C90.5745 44.647 90.1454 45.4045 89.5162 46.0786C88.8867 46.7528 88.0954 47.2767 87.1417 47.6507C86.1857 48.0247 85.0105 48.208 83.6137 48.208C81.8901 48.208 80.331 47.8579 78.9316 47.16C77.5348 46.4621 76.4405 45.3687 75.6492 43.8778C75.177 42.9893 74.8482 41.9388 74.6574 40.736H100.451C100.496 40.2714 100.591 39.4164 100.591 37.9443C100.591 34.2214 99.8455 31.0224 98.3555 28.3451C96.8632 25.6702 94.8155 23.5979 92.2075 22.133C89.5971 20.6657 86.5934 19.9345 83.194 19.9345C79.7018 19.9345 76.6026 20.6919 73.9016 22.2045C71.2007 23.717 69.0814 25.8345 67.544 28.5571C66.0062 31.2796 65.2387 34.4572 65.2387 38.0873C65.2387 41.7174 66.0302 44.8947 67.6155 47.6173C69.1984 50.3399 71.3771 52.4575 74.1472 53.97C76.9173 55.4826 80.0734 56.24 83.6137 56.24C86.5934 56.24 89.2609 55.7159 91.614 54.668C93.9644 53.6198 95.9096 52.167 97.4473 50.3041C98.9824 48.4392 99.9361 46.2762 100.31 43.8086ZM78.686 28.6953C79.9662 28.0664 81.3752 27.752 82.9127 27.752C84.4027 27.752 85.7781 28.0426 87.0345 28.6238C88.2932 29.2074 89.3157 30.103 90.1097 31.3106C90.6556 32.1443 91.0082 33.1471 91.1776 34.3118H74.7934C74.9839 33.3734 75.2558 32.5587 75.6134 31.868C76.381 30.3817 77.4035 29.3241 78.686 28.6953ZM114.764 55.5374H105.192V20.6324H111.97L113.765 24.2196C114.714 23.1572 115.858 22.2616 117.209 21.5399C119.212 20.4704 121.517 19.9345 124.127 19.9345C126.969 19.9345 129.496 20.518 131.708 21.6804C133.92 22.8452 135.68 24.5197 136.984 26.7063C138.288 28.8953 138.941 31.5012 138.941 34.5263V55.5397H129.37V35.9935C129.37 34.412 129.067 33.0494 128.461 31.9109C127.856 30.7699 127.005 29.8981 125.911 29.2931C124.816 28.6881 123.546 28.3856 122.104 28.3856C119.868 28.3856 118.087 29.0478 116.759 30.3745C115.431 31.7013 114.768 33.5759 114.768 35.9935V55.5374H114.764ZM179.412 20.6324H172.634L170.837 24.2267C170.079 23.4621 169.247 22.7881 168.339 22.2045C165.986 20.6919 163.249 19.9345 160.129 19.9345C157.054 19.9345 154.212 20.6919 151.604 22.2045C148.996 23.717 146.889 25.8345 145.282 28.5571C143.675 31.2796 142.872 34.4572 142.872 38.0873C142.872 41.7174 143.675 44.8947 145.282 47.6173C146.889 50.3399 148.996 52.4575 151.604 53.97C154.212 55.4826 157.054 56.24 160.129 56.24C163.249 56.24 165.986 55.4849 168.339 53.97C169.247 53.3864 170.079 52.7122 170.837 51.9477L172.634 55.5421H179.412V20.6324ZM166.136 46.5312C164.784 47.3221 163.247 47.7175 161.526 47.7175C159.802 47.7175 158.265 47.3221 156.915 46.5312C155.564 45.7404 154.493 44.6233 153.702 43.1799C152.91 41.7388 152.515 40.0381 152.515 38.0849C152.515 36.084 152.91 34.3619 153.702 32.9184C154.493 31.4774 155.564 30.3602 156.915 29.567C158.265 28.7762 159.802 28.3808 161.526 28.3808C163.249 28.3808 164.784 28.7762 166.136 29.567C167.485 30.3578 168.558 31.475 169.349 32.9184C170.141 34.3619 170.537 36.084 170.537 38.0849C170.537 40.0404 170.141 41.7388 169.349 43.1799C168.558 44.6233 167.488 45.7404 166.136 46.5312ZM208.507 20.6324H218.078V41.4363C218.078 44.416 217.38 47.0219 215.983 49.2562C214.586 51.4904 212.653 53.2126 210.183 54.4226C207.713 55.6326 204.848 56.2377 201.589 56.2377C196.652 56.2377 192.669 54.9227 189.641 52.293C186.613 49.6634 185.1 46.0452 185.1 41.4387V20.6348H194.671V40.3905C194.671 42.8105 195.3 44.6376 196.557 45.8714C197.815 47.1052 199.491 47.7222 201.587 47.7222C203.727 47.7222 205.418 47.1052 206.652 45.8714C207.887 44.64 208.505 42.8105 208.505 40.3905V20.6324H208.507ZM223.533 10.8569H233.104V55.535H223.533V10.8569ZM69.8085 80.7549C69.8325 81.429 69.8443 82.0936 69.8443 82.7438C69.8443 87.2576 68.8432 91.1449 66.8406 94.401C64.8383 97.6594 62.1254 100.16 58.7022 101.907C55.2789 103.652 51.4004 104.524 47.0688 104.524C43.7147 104.524 40.6062 103.953 37.7407 102.814C34.8753 101.673 32.3842 100.056 30.2649 97.9619C28.1457 95.8684 26.4912 93.4243 25.3041 90.6328C24.1169 87.841 23.5233 84.7922 23.5233 81.4886C23.5233 78.1847 24.105 75.1358 25.2707 72.3443C26.434 69.5526 28.0646 67.1207 30.1624 65.0483C32.2578 62.9785 34.7275 61.361 37.5691 60.1964C40.4107 59.0339 43.5073 58.4505 46.8614 58.4505C51.0546 58.4505 54.6972 59.196 57.7964 60.6848C60.893 62.1733 63.3864 64.129 65.2721 66.5489C67.1577 68.969 68.3353 71.5749 68.8001 74.3666H58.5997C58.2729 73.2495 57.6103 72.1561 56.6091 71.0842C55.6077 70.0148 54.3038 69.1287 52.6972 68.4308C51.0903 67.7328 49.1689 67.3828 46.933 67.3828C44.325 67.3828 42.0079 67.9662 39.9816 69.1287C37.9553 70.2933 36.3724 71.9202 35.2305 74.0164C34.0886 76.1102 33.5189 78.6015 33.5189 81.4862C33.5189 84.373 34.1006 86.886 35.2663 89.025C36.4296 91.1663 38.0483 92.8193 40.1222 93.9818C42.1938 95.1464 44.5586 95.7277 47.2142 95.7277C49.6815 95.7277 51.8365 95.3443 53.677 94.5748C55.5172 93.808 56.962 92.6551 58.0085 91.1188C58.7879 89.9753 59.3028 88.6248 59.5531 87.0695H44.4895V78.8328H69.6418C69.7276 79.4425 69.7848 80.0807 69.8085 80.7549ZM125.675 70.4935C122.833 68.981 119.62 68.2235 116.032 68.2235C112.444 68.2235 109.243 68.981 106.425 70.4935C103.607 72.0061 101.383 74.1236 99.7523 76.8462C98.1219 79.5686 97.3066 82.7461 97.3066 86.3762C97.3066 90.0064 98.1219 93.1839 99.7523 95.9065C101.383 98.6288 103.607 100.746 106.425 102.259C109.243 103.771 112.444 104.529 116.032 104.529C119.617 104.529 122.833 103.774 125.675 102.259C128.516 100.746 130.75 98.6288 132.383 95.9065C134.013 93.1839 134.829 90.0064 134.829 86.3762C134.829 82.7461 134.013 79.5686 132.383 76.8462C130.752 74.1236 128.516 72.0061 125.675 70.4935ZM123.999 91.4712C123.207 92.9148 122.123 94.0319 120.749 94.8225C119.374 95.6134 117.803 96.0088 116.034 96.0088C114.311 96.0088 112.761 95.6134 111.388 94.8225C110.013 94.0319 108.93 92.9148 108.139 91.4712C107.347 90.0301 106.952 88.3294 106.952 86.3762C106.952 84.3753 107.347 82.6532 108.139 81.2098C108.93 79.7688 110.013 78.6516 111.388 77.8584C112.761 77.0676 114.311 76.6722 116.034 76.6722C117.803 76.6722 119.376 77.0676 120.749 77.8584C122.123 78.6493 123.205 79.7664 123.999 81.2098C124.79 82.6532 125.186 84.3753 125.186 86.3762C125.186 88.3294 124.79 90.0301 123.999 91.4712ZM162.026 68.9214H171.598V89.7252C171.598 92.7049 170.899 95.3109 169.502 97.5451C168.105 99.7794 166.172 101.502 163.702 102.712C161.232 103.922 158.369 104.527 155.108 104.527C150.171 104.527 146.188 103.212 143.16 100.582C140.133 97.9525 138.619 94.3344 138.619 89.7276V68.9238H148.19V88.6796C148.19 91.0997 148.82 92.9265 150.076 94.1603C151.335 95.3941 153.011 96.0112 155.106 96.0112C157.247 96.0112 158.937 95.3941 160.172 94.1603C161.407 92.9265 162.024 91.0997 162.024 88.6796V68.9214H162.026ZM205.337 70.4935C202.726 68.981 199.863 68.2235 196.743 68.2235C193.667 68.2235 190.943 68.981 188.568 70.4935C187.667 71.0675 186.84 71.7297 186.084 72.4777L184.306 68.9214H177.529V117.091H187.1V100.925C187.662 101.442 188.268 101.911 188.916 102.328C191.198 103.793 193.808 104.527 196.743 104.527C199.863 104.527 202.726 103.772 205.337 102.257C207.944 100.744 210.052 98.6265 211.658 95.9039C213.265 93.1815 214.069 90.004 214.069 86.3739C214.069 82.7438 213.265 79.5662 211.658 76.8436C210.052 74.1236 207.944 72.0061 205.337 70.4935ZM203.239 91.4712C202.447 92.9148 201.375 94.0319 200.025 94.8225C198.674 95.6134 197.136 96.0088 195.415 96.0088C193.691 96.0088 192.154 95.6134 190.804 94.8225C189.453 94.0319 188.382 92.9148 187.591 91.4712C186.799 90.0301 186.404 88.3294 186.404 86.3762C186.404 84.3753 186.799 82.6532 187.591 81.2098C188.382 79.7688 189.453 78.6516 190.804 77.8584C192.156 77.0676 193.691 76.6722 195.415 76.6722C197.138 76.6722 198.674 77.0676 200.025 77.8584C201.377 78.6493 202.447 79.7664 203.239 81.2098C204.03 82.6532 204.426 84.3753 204.426 86.3762C204.428 88.3294 204.03 90.0301 203.239 91.4712ZM83.2869 73.9164C86.5386 71.0938 90.6914 68.888 95.7451 68.888V78.1108C89.6044 78.1108 86.5292 80.7953 84.9891 83.3274C83.9355 85.0615 83.4443 87.0789 83.4443 89.1059V103.826H73.8731V68.9214H81.7876L83.2869 73.9164ZM258.754 46.7408V55.5374H252.675C249.321 55.5374 246.597 55.0848 244.501 54.1773C242.406 53.2697 240.868 51.8501 239.891 49.9184C238.913 47.9866 238.425 45.5331 238.425 42.5534V28.5904V23.0763V10.8593H247.996V20.6324H258.757V28.5904H247.996V41.784C247.996 43.5061 248.392 44.7637 249.183 45.5545C249.974 46.3454 251.233 46.7408 252.957 46.7408H258.754Z"/>
</mask>
<path d="M35.9576 40.9456H44.8614L52.5852 55.535H63.8346L54.3492 39.1877C55.6531 38.5874 56.826 37.8396 57.8606 36.9321C60.912 34.2571 62.4377 30.5913 62.4377 25.937C62.4377 21.1898 60.912 17.4906 57.8606 14.8371C54.8094 12.1837 50.5827 10.8569 45.1808 10.8569H26.1766V55.535H35.9576V40.9456ZM45.4597 19.5153C47.6959 19.5153 49.4312 20.0845 50.6662 21.2255C51.8986 22.3664 52.5184 23.9838 52.5184 26.0775C52.5184 28.0783 51.9009 29.6623 50.6662 30.8247C49.4312 31.9895 47.6959 32.5707 45.4597 32.5707H35.9576V19.5153H45.4597ZM100.31 43.8086H90.8081C90.5745 44.647 90.1454 45.4045 89.5162 46.0786C88.8867 46.7528 88.0954 47.2767 87.1417 47.6507C86.1857 48.0247 85.0105 48.208 83.6137 48.208C81.8901 48.208 80.331 47.8579 78.9316 47.16C77.5348 46.4621 76.4405 45.3687 75.6492 43.8778C75.177 42.9893 74.8482 41.9388 74.6574 40.736H100.451C100.496 40.2714 100.591 39.4164 100.591 37.9443C100.591 34.2214 99.8455 31.0224 98.3555 28.3451C96.8632 25.6702 94.8155 23.5979 92.2075 22.133C89.5971 20.6657 86.5934 19.9345 83.194 19.9345C79.7018 19.9345 76.6026 20.6919 73.9016 22.2045C71.2007 23.717 69.0814 25.8345 67.544 28.5571C66.0062 31.2796 65.2387 34.4572 65.2387 38.0873C65.2387 41.7174 66.0302 44.8947 67.6155 47.6173C69.1984 50.3399 71.3771 52.4575 74.1472 53.97C76.9173 55.4826 80.0734 56.24 83.6137 56.24C86.5934 56.24 89.2609 55.7159 91.614 54.668C93.9644 53.6198 95.9096 52.167 97.4473 50.3041C98.9824 48.4392 99.9361 46.2762 100.31 43.8086ZM78.686 28.6953C79.9662 28.0664 81.3752 27.752 82.9127 27.752C84.4027 27.752 85.7781 28.0426 87.0345 28.6238C88.2932 29.2074 89.3157 30.103 90.1097 31.3106C90.6556 32.1443 91.0082 33.1471 91.1776 34.3118H74.7934C74.9839 33.3734 75.2558 32.5587 75.6134 31.868C76.381 30.3817 77.4035 29.3241 78.686 28.6953ZM114.764 55.5374H105.192V20.6324H111.97L113.765 24.2196C114.714 23.1572 115.858 22.2616 117.209 21.5399C119.212 20.4704 121.517 19.9345 124.127 19.9345C126.969 19.9345 129.496 20.518 131.708 21.6804C133.92 22.8452 135.68 24.5197 136.984 26.7063C138.288 28.8953 138.941 31.5012 138.941 34.5263V55.5397H129.37V35.9935C129.37 34.412 129.067 33.0494 128.461 31.9109C127.856 30.7699 127.005 29.8981 125.911 29.2931C124.816 28.6881 123.546 28.3856 122.104 28.3856C119.868 28.3856 118.087 29.0478 116.759 30.3745C115.431 31.7013 114.768 33.5759 114.768 35.9935V55.5374H114.764ZM179.412 20.6324H172.634L170.837 24.2267C170.079 23.4621 169.247 22.7881 168.339 22.2045C165.986 20.6919 163.249 19.9345 160.129 19.9345C157.054 19.9345 154.212 20.6919 151.604 22.2045C148.996 23.717 146.889 25.8345 145.282 28.5571C143.675 31.2796 142.872 34.4572 142.872 38.0873C142.872 41.7174 143.675 44.8947 145.282 47.6173C146.889 50.3399 148.996 52.4575 151.604 53.97C154.212 55.4826 157.054 56.24 160.129 56.24C163.249 56.24 165.986 55.4849 168.339 53.97C169.247 53.3864 170.079 52.7122 170.837 51.9477L172.634 55.5421H179.412V20.6324ZM166.136 46.5312C164.784 47.3221 163.247 47.7175 161.526 47.7175C159.802 47.7175 158.265 47.3221 156.915 46.5312C155.564 45.7404 154.493 44.6233 153.702 43.1799C152.91 41.7388 152.515 40.0381 152.515 38.0849C152.515 36.084 152.91 34.3619 153.702 32.9184C154.493 31.4774 155.564 30.3602 156.915 29.567C158.265 28.7762 159.802 28.3808 161.526 28.3808C163.249 28.3808 164.784 28.7762 166.136 29.567C167.485 30.3578 168.558 31.475 169.349 32.9184C170.141 34.3619 170.537 36.084 170.537 38.0849C170.537 40.0404 170.141 41.7388 169.349 43.1799C168.558 44.6233 167.488 45.7404 166.136 46.5312ZM208.507 20.6324H218.078V41.4363C218.078 44.416 217.38 47.0219 215.983 49.2562C214.586 51.4904 212.653 53.2126 210.183 54.4226C207.713 55.6326 204.848 56.2377 201.589 56.2377C196.652 56.2377 192.669 54.9227 189.641 52.293C186.613 49.6634 185.1 46.0452 185.1 41.4387V20.6348H194.671V40.3905C194.671 42.8105 195.3 44.6376 196.557 45.8714C197.815 47.1052 199.491 47.7222 201.587 47.7222C203.727 47.7222 205.418 47.1052 206.652 45.8714C207.887 44.64 208.505 42.8105 208.505 40.3905V20.6324H208.507ZM223.533 10.8569H233.104V55.535H223.533V10.8569ZM69.8085 80.7549C69.8325 81.429 69.8443 82.0936 69.8443 82.7438C69.8443 87.2576 68.8432 91.1449 66.8406 94.401C64.8383 97.6594 62.1254 100.16 58.7022 101.907C55.2789 103.652 51.4004 104.524 47.0688 104.524C43.7147 104.524 40.6062 103.953 37.7407 102.814C34.8753 101.673 32.3842 100.056 30.2649 97.9619C28.1457 95.8684 26.4912 93.4243 25.3041 90.6328C24.1169 87.841 23.5233 84.7922 23.5233 81.4886C23.5233 78.1847 24.105 75.1358 25.2707 72.3443C26.434 69.5526 28.0646 67.1207 30.1624 65.0483C32.2578 62.9785 34.7275 61.361 37.5691 60.1964C40.4107 59.0339 43.5073 58.4505 46.8614 58.4505C51.0546 58.4505 54.6972 59.196 57.7964 60.6848C60.893 62.1733 63.3864 64.129 65.2721 66.5489C67.1577 68.969 68.3353 71.5749 68.8001 74.3666H58.5997C58.2729 73.2495 57.6103 72.1561 56.6091 71.0842C55.6077 70.0148 54.3038 69.1287 52.6972 68.4308C51.0903 67.7328 49.1689 67.3828 46.933 67.3828C44.325 67.3828 42.0079 67.9662 39.9816 69.1287C37.9553 70.2933 36.3724 71.9202 35.2305 74.0164C34.0886 76.1102 33.5189 78.6015 33.5189 81.4862C33.5189 84.373 34.1006 86.886 35.2663 89.025C36.4296 91.1663 38.0483 92.8193 40.1222 93.9818C42.1938 95.1464 44.5586 95.7277 47.2142 95.7277C49.6815 95.7277 51.8365 95.3443 53.677 94.5748C55.5172 93.808 56.962 92.6551 58.0085 91.1188C58.7879 89.9753 59.3028 88.6248 59.5531 87.0695H44.4895V78.8328H69.6418C69.7276 79.4425 69.7848 80.0807 69.8085 80.7549ZM125.675 70.4935C122.833 68.981 119.62 68.2235 116.032 68.2235C112.444 68.2235 109.243 68.981 106.425 70.4935C103.607 72.0061 101.383 74.1236 99.7523 76.8462C98.1219 79.5686 97.3066 82.7461 97.3066 86.3762C97.3066 90.0064 98.1219 93.1839 99.7523 95.9065C101.383 98.6288 103.607 100.746 106.425 102.259C109.243 103.771 112.444 104.529 116.032 104.529C119.617 104.529 122.833 103.774 125.675 102.259C128.516 100.746 130.75 98.6288 132.383 95.9065C134.013 93.1839 134.829 90.0064 134.829 86.3762C134.829 82.7461 134.013 79.5686 132.383 76.8462C130.752 74.1236 128.516 72.0061 125.675 70.4935ZM123.999 91.4712C123.207 92.9148 122.123 94.0319 120.749 94.8225C119.374 95.6134 117.803 96.0088 116.034 96.0088C114.311 96.0088 112.761 95.6134 111.388 94.8225C110.013 94.0319 108.93 92.9148 108.139 91.4712C107.347 90.0301 106.952 88.3294 106.952 86.3762C106.952 84.3753 107.347 82.6532 108.139 81.2098C108.93 79.7688 110.013 78.6516 111.388 77.8584C112.761 77.0676 114.311 76.6722 116.034 76.6722C117.803 76.6722 119.376 77.0676 120.749 77.8584C122.123 78.6493 123.205 79.7664 123.999 81.2098C124.79 82.6532 125.186 84.3753 125.186 86.3762C125.186 88.3294 124.79 90.0301 123.999 91.4712ZM162.026 68.9214H171.598V89.7252C171.598 92.7049 170.899 95.3109 169.502 97.5451C168.105 99.7794 166.172 101.502 163.702 102.712C161.232 103.922 158.369 104.527 155.108 104.527C150.171 104.527 146.188 103.212 143.16 100.582C140.133 97.9525 138.619 94.3344 138.619 89.7276V68.9238H148.19V88.6796C148.19 91.0997 148.82 92.9265 150.076 94.1603C151.335 95.3941 153.011 96.0112 155.106 96.0112C157.247 96.0112 158.937 95.3941 160.172 94.1603C161.407 92.9265 162.024 91.0997 162.024 88.6796V68.9214H162.026ZM205.337 70.4935C202.726 68.981 199.863 68.2235 196.743 68.2235C193.667 68.2235 190.943 68.981 188.568 70.4935C187.667 71.0675 186.84 71.7297 186.084 72.4777L184.306 68.9214H177.529V117.091H187.1V100.925C187.662 101.442 188.268 101.911 188.916 102.328C191.198 103.793 193.808 104.527 196.743 104.527C199.863 104.527 202.726 103.772 205.337 102.257C207.944 100.744 210.052 98.6265 211.658 95.9039C213.265 93.1815 214.069 90.004 214.069 86.3739C214.069 82.7438 213.265 79.5662 211.658 76.8436C210.052 74.1236 207.944 72.0061 205.337 70.4935ZM203.239 91.4712C202.447 92.9148 201.375 94.0319 200.025 94.8225C198.674 95.6134 197.136 96.0088 195.415 96.0088C193.691 96.0088 192.154 95.6134 190.804 94.8225C189.453 94.0319 188.382 92.9148 187.591 91.4712C186.799 90.0301 186.404 88.3294 186.404 86.3762C186.404 84.3753 186.799 82.6532 187.591 81.2098C188.382 79.7688 189.453 78.6516 190.804 77.8584C192.156 77.0676 193.691 76.6722 195.415 76.6722C197.138 76.6722 198.674 77.0676 200.025 77.8584C201.377 78.6493 202.447 79.7664 203.239 81.2098C204.03 82.6532 204.426 84.3753 204.426 86.3762C204.428 88.3294 204.03 90.0301 203.239 91.4712ZM83.2869 73.9164C86.5386 71.0938 90.6914 68.888 95.7451 68.888V78.1108C89.6044 78.1108 86.5292 80.7953 84.9891 83.3274C83.9355 85.0615 83.4443 87.0789 83.4443 89.1059V103.826H73.8731V68.9214H81.7876L83.2869 73.9164ZM258.754 46.7408V55.5374H252.675C249.321 55.5374 246.597 55.0848 244.501 54.1773C242.406 53.2697 240.868 51.8501 239.891 49.9184C238.913 47.9866 238.425 45.5331 238.425 42.5534V28.5904V23.0763V10.8593H247.996V20.6324H258.757V28.5904H247.996V41.784C247.996 43.5061 248.392 44.7637 249.183 45.5545C249.974 46.3454 251.233 46.7408 252.957 46.7408H258.754Z" fill="#242237"/>
<path d="M35.9576 40.9456H44.8614L52.5852 55.535H63.8346L54.3492 39.1877C55.6531 38.5874 56.826 37.8396 57.8606 36.9321C60.912 34.2571 62.4377 30.5913 62.4377 25.937C62.4377 21.1898 60.912 17.4906 57.8606 14.8371C54.8094 12.1837 50.5827 10.8569 45.1808 10.8569H26.1766V55.535H35.9576V40.9456ZM45.4597 19.5153C47.6959 19.5153 49.4312 20.0845 50.6662 21.2255C51.8986 22.3664 52.5184 23.9838 52.5184 26.0775C52.5184 28.0783 51.9009 29.6623 50.6662 30.8247C49.4312 31.9895 47.6959 32.5707 45.4597 32.5707H35.9576V19.5153H45.4597ZM100.31 43.8086H90.8081C90.5745 44.647 90.1454 45.4045 89.5162 46.0786C88.8867 46.7528 88.0954 47.2767 87.1417 47.6507C86.1857 48.0247 85.0105 48.208 83.6137 48.208C81.8901 48.208 80.331 47.8579 78.9316 47.16C77.5348 46.4621 76.4405 45.3687 75.6492 43.8778C75.177 42.9893 74.8482 41.9388 74.6574 40.736H100.451C100.496 40.2714 100.591 39.4164 100.591 37.9443C100.591 34.2214 99.8455 31.0224 98.3555 28.3451C96.8632 25.6702 94.8155 23.5979 92.2075 22.133C89.5971 20.6657 86.5934 19.9345 83.194 19.9345C79.7018 19.9345 76.6026 20.6919 73.9016 22.2045C71.2007 23.717 69.0814 25.8345 67.544 28.5571C66.0062 31.2796 65.2387 34.4572 65.2387 38.0873C65.2387 41.7174 66.0302 44.8947 67.6155 47.6173C69.1984 50.3399 71.3771 52.4575 74.1472 53.97C76.9173 55.4826 80.0734 56.24 83.6137 56.24C86.5934 56.24 89.2609 55.7159 91.614 54.668C93.9644 53.6198 95.9096 52.167 97.4473 50.3041C98.9824 48.4392 99.9361 46.2762 100.31 43.8086ZM78.686 28.6953C79.9662 28.0664 81.3752 27.752 82.9127 27.752C84.4027 27.752 85.7781 28.0426 87.0345 28.6238C88.2932 29.2074 89.3157 30.103 90.1097 31.3106C90.6556 32.1443 91.0082 33.1471 91.1776 34.3118H74.7934C74.9839 33.3734 75.2558 32.5587 75.6134 31.868C76.381 30.3817 77.4035 29.3241 78.686 28.6953ZM114.764 55.5374H105.192V20.6324H111.97L113.765 24.2196C114.714 23.1572 115.858 22.2616 117.209 21.5399C119.212 20.4704 121.517 19.9345 124.127 19.9345C126.969 19.9345 129.496 20.518 131.708 21.6804C133.92 22.8452 135.68 24.5197 136.984 26.7063C138.288 28.8953 138.941 31.5012 138.941 34.5263V55.5397H129.37V35.9935C129.37 34.412 129.067 33.0494 128.461 31.9109C127.856 30.7699 127.005 29.8981 125.911 29.2931C124.816 28.6881 123.546 28.3856 122.104 28.3856C119.868 28.3856 118.087 29.0478 116.759 30.3745C115.431 31.7013 114.768 33.5759 114.768 35.9935V55.5374H114.764ZM179.412 20.6324H172.634L170.837 24.2267C170.079 23.4621 169.247 22.7881 168.339 22.2045C165.986 20.6919 163.249 19.9345 160.129 19.9345C157.054 19.9345 154.212 20.6919 151.604 22.2045C148.996 23.717 146.889 25.8345 145.282 28.5571C143.675 31.2796 142.872 34.4572 142.872 38.0873C142.872 41.7174 143.675 44.8947 145.282 47.6173C146.889 50.3399 148.996 52.4575 151.604 53.97C154.212 55.4826 157.054 56.24 160.129 56.24C163.249 56.24 165.986 55.4849 168.339 53.97C169.247 53.3864 170.079 52.7122 170.837 51.9477L172.634 55.5421H179.412V20.6324ZM166.136 46.5312C164.784 47.3221 163.247 47.7175 161.526 47.7175C159.802 47.7175 158.265 47.3221 156.915 46.5312C155.564 45.7404 154.493 44.6233 153.702 43.1799C152.91 41.7388 152.515 40.0381 152.515 38.0849C152.515 36.084 152.91 34.3619 153.702 32.9184C154.493 31.4774 155.564 30.3602 156.915 29.567C158.265 28.7762 159.802 28.3808 161.526 28.3808C163.249 28.3808 164.784 28.7762 166.136 29.567C167.485 30.3578 168.558 31.475 169.349 32.9184C170.141 34.3619 170.537 36.084 170.537 38.0849C170.537 40.0404 170.141 41.7388 169.349 43.1799C168.558 44.6233 167.488 45.7404 166.136 46.5312ZM208.507 20.6324H218.078V41.4363C218.078 44.416 217.38 47.0219 215.983 49.2562C214.586 51.4904 212.653 53.2126 210.183 54.4226C207.713 55.6326 204.848 56.2377 201.589 56.2377C196.652 56.2377 192.669 54.9227 189.641 52.293C186.613 49.6634 185.1 46.0452 185.1 41.4387V20.6348H194.671V40.3905C194.671 42.8105 195.3 44.6376 196.557 45.8714C197.815 47.1052 199.491 47.7222 201.587 47.7222C203.727 47.7222 205.418 47.1052 206.652 45.8714C207.887 44.64 208.505 42.8105 208.505 40.3905V20.6324H208.507ZM223.533 10.8569H233.104V55.535H223.533V10.8569ZM69.8085 80.7549C69.8325 81.429 69.8443 82.0936 69.8443 82.7438C69.8443 87.2576 68.8432 91.1449 66.8406 94.401C64.8383 97.6594 62.1254 100.16 58.7022 101.907C55.2789 103.652 51.4004 104.524 47.0688 104.524C43.7147 104.524 40.6062 103.953 37.7407 102.814C34.8753 101.673 32.3842 100.056 30.2649 97.9619C28.1457 95.8684 26.4912 93.4243 25.3041 90.6328C24.1169 87.841 23.5233 84.7922 23.5233 81.4886C23.5233 78.1847 24.105 75.1358 25.2707 72.3443C26.434 69.5526 28.0646 67.1207 30.1624 65.0483C32.2578 62.9785 34.7275 61.361 37.5691 60.1964C40.4107 59.0339 43.5073 58.4505 46.8614 58.4505C51.0546 58.4505 54.6972 59.196 57.7964 60.6848C60.893 62.1733 63.3864 64.129 65.2721 66.5489C67.1577 68.969 68.3353 71.5749 68.8001 74.3666H58.5997C58.2729 73.2495 57.6103 72.1561 56.6091 71.0842C55.6077 70.0148 54.3038 69.1287 52.6972 68.4308C51.0903 67.7328 49.1689 67.3828 46.933 67.3828C44.325 67.3828 42.0079 67.9662 39.9816 69.1287C37.9553 70.2933 36.3724 71.9202 35.2305 74.0164C34.0886 76.1102 33.5189 78.6015 33.5189 81.4862C33.5189 84.373 34.1006 86.886 35.2663 89.025C36.4296 91.1663 38.0483 92.8193 40.1222 93.9818C42.1938 95.1464 44.5586 95.7277 47.2142 95.7277C49.6815 95.7277 51.8365 95.3443 53.677 94.5748C55.5172 93.808 56.962 92.6551 58.0085 91.1188C58.7879 89.9753 59.3028 88.6248 59.5531 87.0695H44.4895V78.8328H69.6418C69.7276 79.4425 69.7848 80.0807 69.8085 80.7549ZM125.675 70.4935C122.833 68.981 119.62 68.2235 116.032 68.2235C112.444 68.2235 109.243 68.981 106.425 70.4935C103.607 72.0061 101.383 74.1236 99.7523 76.8462C98.1219 79.5686 97.3066 82.7461 97.3066 86.3762C97.3066 90.0064 98.1219 93.1839 99.7523 95.9065C101.383 98.6288 103.607 100.746 106.425 102.259C109.243 103.771 112.444 104.529 116.032 104.529C119.617 104.529 122.833 103.774 125.675 102.259C128.516 100.746 130.75 98.6288 132.383 95.9065C134.013 93.1839 134.829 90.0064 134.829 86.3762C134.829 82.7461 134.013 79.5686 132.383 76.8462C130.752 74.1236 128.516 72.0061 125.675 70.4935ZM123.999 91.4712C123.207 92.9148 122.123 94.0319 120.749 94.8225C119.374 95.6134 117.803 96.0088 116.034 96.0088C114.311 96.0088 112.761 95.6134 111.388 94.8225C110.013 94.0319 108.93 92.9148 108.139 91.4712C107.347 90.0301 106.952 88.3294 106.952 86.3762C106.952 84.3753 107.347 82.6532 108.139 81.2098C108.93 79.7688 110.013 78.6516 111.388 77.8584C112.761 77.0676 114.311 76.6722 116.034 76.6722C117.803 76.6722 119.376 77.0676 120.749 77.8584C122.123 78.6493 123.205 79.7664 123.999 81.2098C124.79 82.6532 125.186 84.3753 125.186 86.3762C125.186 88.3294 124.79 90.0301 123.999 91.4712ZM162.026 68.9214H171.598V89.7252C171.598 92.7049 170.899 95.3109 169.502 97.5451C168.105 99.7794 166.172 101.502 163.702 102.712C161.232 103.922 158.369 104.527 155.108 104.527C150.171 104.527 146.188 103.212 143.16 100.582C140.133 97.9525 138.619 94.3344 138.619 89.7276V68.9238H148.19V88.6796C148.19 91.0997 148.82 92.9265 150.076 94.1603C151.335 95.3941 153.011 96.0112 155.106 96.0112C157.247 96.0112 158.937 95.3941 160.172 94.1603C161.407 92.9265 162.024 91.0997 162.024 88.6796V68.9214H162.026ZM205.337 70.4935C202.726 68.981 199.863 68.2235 196.743 68.2235C193.667 68.2235 190.943 68.981 188.568 70.4935C187.667 71.0675 186.84 71.7297 186.084 72.4777L184.306 68.9214H177.529V117.091H187.1V100.925C187.662 101.442 188.268 101.911 188.916 102.328C191.198 103.793 193.808 104.527 196.743 104.527C199.863 104.527 202.726 103.772 205.337 102.257C207.944 100.744 210.052 98.6265 211.658 95.9039C213.265 93.1815 214.069 90.004 214.069 86.3739C214.069 82.7438 213.265 79.5662 211.658 76.8436C210.052 74.1236 207.944 72.0061 205.337 70.4935ZM203.239 91.4712C202.447 92.9148 201.375 94.0319 200.025 94.8225C198.674 95.6134 197.136 96.0088 195.415 96.0088C193.691 96.0088 192.154 95.6134 190.804 94.8225C189.453 94.0319 188.382 92.9148 187.591 91.4712C186.799 90.0301 186.404 88.3294 186.404 86.3762C186.404 84.3753 186.799 82.6532 187.591 81.2098C188.382 79.7688 189.453 78.6516 190.804 77.8584C192.156 77.0676 193.691 76.6722 195.415 76.6722C197.138 76.6722 198.674 77.0676 200.025 77.8584C201.377 78.6493 202.447 79.7664 203.239 81.2098C204.03 82.6532 204.426 84.3753 204.426 86.3762C204.428 88.3294 204.03 90.0301 203.239 91.4712ZM83.2869 73.9164C86.5386 71.0938 90.6914 68.888 95.7451 68.888V78.1108C89.6044 78.1108 86.5292 80.7953 84.9891 83.3274C83.9355 85.0615 83.4443 87.0789 83.4443 89.1059V103.826H73.8731V68.9214H81.7876L83.2869 73.9164ZM258.754 46.7408V55.5374H252.675C249.321 55.5374 246.597 55.0848 244.501 54.1773C242.406 53.2697 240.868 51.8501 239.891 49.9184C238.913 47.9866 238.425 45.5331 238.425 42.5534V28.5904V23.0763V10.8593H247.996V20.6324H258.757V28.5904H247.996V41.784C247.996 43.5061 248.392 44.7637 249.183 45.5545C249.974 46.3454 251.233 46.7408 252.957 46.7408H258.754Z" stroke="#FAFAFA" stroke-width="18.0949" mask="url(#path-1-outside-1_4474_89957)"/>
</g>
</g>
<defs>
<filter id="filter0_d_4474_89957" x="14.4759" y="1.80949" width="255.138" height="126.139" filterUnits="userSpaceOnUse" color-interpolation-filters="sRGB">
<feFlood flood-opacity="0" result="BackgroundImageFix"/>
<feColorMatrix in="SourceAlpha" type="matrix" values="0 0 0 0 0 0 0 0 0 0 0 0 0 0 0 0 0 0 127 0" result="hardAlpha"/>
<feOffset dx="1.80949" dy="1.80949"/>
<feComposite in2="hardAlpha" operator="out"/>
<feColorMatrix type="matrix" values="0 0 0 0 0 0 0 0 0 0.156863 0 0 0 0 1 0 0 0 1 0"/>
<feBlend mode="normal" in2="BackgroundImageFix" result="effect1_dropShadow_4474_89957"/>
<feBlend mode="normal" in="SourceGraphic" in2="effect1_dropShadow_4474_89957" result="shape"/>
</filter>
</defs>
</svg>
